<svg width="14" height="12" viewBox="0 0 14 12" fill="none" xmlns="http://www.w3.org/2000/svg">
<path fill-rule="evenodd" clip-rule="evenodd" d="M1.75239 0.085022C2.53576 0.085022 3.1708 0.747086 3.1708 1.56378C3.1708 2.38048 2.53576 3.04254 1.75239 3.04254C0.969028 3.04254 0.333984 2.38048 0.333984 1.56378C0.333984 0.747086 0.969028 0.085022 1.75239 0.085022ZM13.6673 7.18297C13.6673 9.7964 11.6352 11.915 9.34455 11.915C6.62164 11.915 4.5895 9.7964 4.5895 7.18297C4.5895 4.56954 6.62164 2.45094 9.34455 2.45094C11.6352 2.45094 13.6673 4.56954 13.6673 7.18297ZM2.88772 5.70405C2.88772 5.05069 2.37968 4.52104 1.75299 4.52104C1.1263 4.52104 0.618264 5.05069 0.618264 5.70405V10.7318C0.618264 11.3852 1.1263 11.9148 1.75299 11.9148C2.37968 11.9148 2.88772 11.3852 2.88772 10.7318V5.70405ZM10.2437 6.68634H10.848V6.06644H10.248V5.3168H9.5916V7.8108C9.5916 8.20485 9.64377 8.47395 9.75245 8.61811C9.85678 8.76708 10.0568 8.83916 10.3524 8.83916C10.4654 8.83916 10.6349 8.81033 10.8523 8.75747L10.8219 8.18082L10.448 8.19043C10.3828 8.19043 10.335 8.17602 10.3046 8.14238C10.2741 8.10874 10.2567 8.0703 10.2524 8.02705C10.248 7.97899 10.2437 7.90691 10.2437 7.79639V6.68634ZM8.2646 6.07103V8.77647H8.92104V6.07103H8.2646ZM7.2805 6.00401C7.39523 6.00401 7.49232 6.04429 7.56733 6.12487C7.64235 6.20544 7.67766 6.30392 7.67766 6.42478C7.67766 6.54563 7.64235 6.63964 7.56733 6.72021C7.49673 6.79183 7.40406 6.83211 7.28491 6.83211C7.17018 6.83211 7.0731 6.79183 6.99808 6.71126C6.92306 6.63068 6.88335 6.53221 6.88335 6.41582C6.88335 6.29944 6.92306 6.20096 6.99367 6.12039C7.06869 6.03982 7.16577 6.00401 7.2805 6.00401Z" fill="#0B3EE3"/>
</svg>
