<svg width="24" height="20" viewBox="0 0 24 20" fill="none" xmlns="http://www.w3.org/2000/svg">
<path fill-rule="evenodd" clip-rule="evenodd" d="M5 2H19C20.6567 2 21.9998 3.34295 22 4.99964C21.1643 4.37195 20.1256 4 19 4H5C3.87439 4 2.83566 4.37194 2 4.99963C2.0002 3.34295 3.34327 2 5 2ZM24 13V9V5C24 2.23858 21.7614 0 19 0H5C2.23858 0 0 2.23858 0 5V9V13V15C0 17.7614 2.23858 20 5 20H19C21.7614 20 24 17.7614 24 15V13ZM22 8.99964C21.9998 7.34295 20.6567 6 19 6H5C3.34327 6 2.00019 7.34295 2 8.99964C2.83566 8.37195 3.87439 8 5 8H8H8.5C9.27479 8 9.88769 8.66231 10.4258 9.24386C10.4631 9.28412 10.5 9.32399 10.5366 9.36323C10.9017 9.755 11.4222 10 12 10C12.5778 10 13.0983 9.755 13.4634 9.36323C13.5 9.32399 13.5369 9.28412 13.5742 9.24386C14.1123 8.66231 14.7252 8 15.5 8H16H19C20.1256 8 21.1643 8.37195 22 8.99964ZM2 13V15C2 16.6569 3.34315 18 5 18H19C20.6569 18 22 16.6569 22 15V13C22 11.3431 20.6569 10 19 10H16.3301C15.7946 10 15.3155 10.3012 14.9544 10.6966C14.223 11.4975 13.1702 12 12 12C10.8298 12 9.77701 11.4975 9.04555 10.6966C8.68447 10.3012 8.20539 10 7.66994 10H5C3.34315 10 2 11.3431 2 13Z" fill="#0B3EE3"/>
</svg>
